<svg width="36" height="36" viewBox="0 0 36 36" fill="none" xmlns="http://www.w3.org/2000/svg">
<path d="M25.6414 10.359C23.5264 8.25295 20.7634 7.19995 18.0004 7.19995V18L10.3594 25.641C14.5804 29.862 21.4114 29.862 25.6324 25.641C29.8534 21.42 29.8534 14.58 25.6414 10.359V10.359Z" fill="#161C2D"/>
<path opacity="0.5" fill-rule="evenodd" clip-rule="evenodd" d="M0 18C0 8.055 8.055 0 18 0C27.945 0 36 8.055 36 18C36 27.936 27.945 36 18 36C8.055 36 0 27.945 0 18ZM3.6 18C3.6 25.956 10.044 32.4 18 32.4C25.956 32.4 32.4 25.956 32.4 18C32.4 10.044 25.956 3.6 18 3.6C10.044 3.6 3.6 10.044 3.6 18Z" fill="#161C2D"/>
</svg>
