<?xml version="1.0" standalone="no"?>
<!DOCTYPE svg PUBLIC "-//W3C//DTD SVG 20010904//EN"
 "http://www.w3.org/TR/2001/REC-SVG-20010904/DTD/svg10.dtd">
<svg version="1.0" xmlns="http://www.w3.org/2000/svg"
 width="626.000000pt" height="417.000000pt" viewBox="0 0 626.000000 417.000000"
 preserveAspectRatio="xMidYMid meet">

<g transform="translate(0.000000,417.000000) scale(0.100000,-0.100000)"
fill="#000000" stroke="none">
<path d="M5 4159 c-12 -19 2 -21 32 -5 l28 15 -27 1 c-15 0 -30 -5 -33 -11z"/>
<path d="M140 4095 c-69 -41 -129 -75 -134 -77 -5 -2 -7 -9 -5 -16 2 -7 57 19
139 67 l135 78 3 -55 c2 -30 -1 -58 -5 -63 -4 -4 -64 -40 -133 -79 -132 -75
-147 -86 -138 -96 3 -3 65 29 136 70 72 42 133 76 136 76 3 0 6 -26 6 -57 l-1
-58 -139 -80 c-77 -43 -140 -85 -140 -92 0 -6 55 20 123 58 67 39 130 75 140
80 15 9 17 4 17 -49 l0 -60 -135 -76 c-126 -72 -153 -91 -143 -102 3 -2 70 33
149 79 l144 83 3 222 c2 207 1 222 -15 221 -10 0 -74 -34 -143 -74z"/>
<path d="M410 3922 l0 -248 -205 -118 c-179 -103 -227 -136 -197 -136 4 0 99
54 212 119 l205 119 3 256 c1 169 -1 256 -8 256 -6 0 -10 -87 -10 -248z"/>
<path d="M528 3883 l-3 -286 -255 -148 c-140 -82 -259 -150 -264 -152 -5 -1
-7 -8 -5 -15 2 -6 117 54 276 146 l273 157 0 293 c0 185 -4 292 -10 292 -6 0
-11 -107 -12 -287z"/>
<path d="M658 3849 l-3 -321 -324 -187 c-179 -103 -327 -193 -329 -201 -3 -7
0 -11 6 -9 6 2 159 90 341 194 l330 190 1 328 c0 208 -4 327 -10 327 -6 0 -11
-118 -12 -321z"/>
<path d="M780 3813 l0 -358 -348 -199 c-191 -110 -359 -208 -375 -219 l-27
-18 0 -430 c0 -373 -2 -430 -15 -435 -8 -4 -15 -12 -15 -20 0 -11 5 -11 25 -2
l25 11 2 435 3 434 373 215 372 216 0 363 c0 236 -4 364 -10 364 -6 0 -10
-126 -10 -357z"/>
<path d="M910 3780 l0 -390 -32 -20 c-18 -11 -187 -109 -375 -218 l-343 -197
0 -432 0 -431 -80 -46 c-44 -26 -80 -51 -80 -56 0 -16 11 -12 95 38 l80 48 5
434 5 434 373 215 372 214 0 399 c0 259 -4 398 -10 398 -6 0 -10 -137 -10
-390z"/>
<path d="M1030 3741 l0 -428 -372 -215 -373 -215 -3 -434 -3 -434 -139 -80
c-77 -43 -140 -85 -140 -93 0 -10 8 -9 33 6 57 34 201 118 225 131 22 12 22
11 22 -47 l0 -60 -135 -77 c-127 -73 -153 -91 -143 -100 2 -3 66 31 142 75
l137 79 -3 -62 -3 -61 -135 -78 c-74 -43 -137 -83 -139 -89 -6 -18 16 -7 150
71 66 38 122 70 125 70 2 0 4 -26 4 -58 l0 -58 -140 -79 c-77 -44 -140 -86
-140 -93 0 -8 16 -4 48 14 56 32 154 89 200 116 l32 20 0 -60 0 -60 -124 -72
c-143 -83 -163 -96 -154 -105 3 -3 65 28 136 69 72 42 133 76 136 76 3 0 6
-26 6 -57 l-1 -58 -139 -79 c-77 -44 -140 -85 -140 -92 0 -7 53 17 123 57 67
39 130 75 140 80 15 9 17 4 17 -49 l0 -58 -140 -79 c-76 -44 -139 -86 -140
-93 0 -14 50 11 217 110 l83 49 2 432 3 432 373 215 372 215 0 431 0 432 373
215 372 214 3 222 c2 196 1 221 -13 221 -9 0 -176 -92 -371 -205 -195 -113
-357 -205 -359 -205 -11 0 -4 108 8 118 6 6 122 74 257 151 137 79 235 141
222 141 -12 0 -123 -58 -247 -130 -124 -71 -230 -130 -235 -130 -6 0 -10 24
-10 54 l0 55 133 75 c76 44 123 76 110 76 -12 0 -65 -25 -117 -55 -137 -79
-129 -79 -124 -6 2 44 0 61 -9 61 -10 0 -13 -92 -13 -429z m750 350 l0 -59
-348 -200 c-191 -111 -355 -204 -365 -208 -16 -6 -18 -1 -15 51 l3 58 360 208
c198 114 361 208 363 209 1 0 2 -27 2 -59z m-2 -148 l-3 -57 -350 -203 c-192
-111 -356 -203 -362 -203 -9 0 -13 17 -13 53 l0 52 358 207 c196 114 361 208
365 208 4 0 7 -26 5 -57z m2 -141 l0 -57 -359 -208 c-198 -114 -363 -207 -366
-207 -3 0 -5 26 -3 57 l3 58 360 207 c198 115 361 208 362 208 2 0 3 -26 3
-58z m-752 -579 l-3 -57 -350 -203 c-192 -111 -356 -203 -362 -203 -9 0 -13
17 -13 53 l0 53 358 206 c196 114 361 207 365 208 4 0 7 -26 5 -57z m2 -141
l0 -57 -360 -208 c-197 -114 -362 -207 -365 -207 -3 0 -5 26 -3 57 l3 58 355
206 c195 114 358 207 363 208 4 1 7 -25 7 -57z m-7 -203 c-15 -14 -705 -409
-714 -409 -6 0 -9 25 -7 56 l3 55 360 208 360 208 3 -55 c2 -30 -1 -58 -5 -63z
m7 -86 l-1 -58 -352 -202 c-194 -112 -356 -204 -362 -205 -16 -5 -18 97 -2
110 19 16 700 411 710 412 4 0 7 -26 7 -57z m0 -142 l0 -58 -359 -207 c-197
-113 -361 -206 -365 -206 -4 0 -6 26 -4 57 l3 57 360 208 c198 114 361 208
363 208 1 0 2 -26 2 -59z m-2 -148 l-3 -57 -350 -202 c-192 -112 -356 -203
-362 -203 -9 -1 -13 16 -13 53 l0 53 358 206 c196 114 361 207 365 207 4 0 7
-26 5 -57z"/>
<path d="M1910 3922 l0 -247 -375 -215 -374 -215 -1 -432 0 -432 -57 -34 c-32
-19 -201 -116 -375 -217 l-318 -182 0 -432 0 -432 -205 -118 c-113 -65 -205
-122 -205 -128 0 -15 13 -9 230 117 l200 117 0 431 0 432 375 215 374 215 3
433 3 434 370 213 370 214 3 255 c1 169 -1 256 -8 256 -6 0 -10 -86 -10 -248z"/>
<path d="M2028 3884 l-3 -286 -372 -215 -373 -215 0 -432 0 -431 -342 -198
c-189 -108 -358 -206 -375 -217 l-33 -20 -2 -431 -3 -432 -262 -151 c-145 -83
-263 -157 -263 -164 0 -9 18 -3 53 17 28 17 152 88 274 158 l223 128 2 433 3
434 370 213 370 214 3 431 2 431 44 27 c23 15 192 113 374 217 l331 190 1 293
c0 185 -4 292 -10 292 -6 0 -11 -107 -12 -286z"/>
<path d="M2160 3851 l0 -319 -137 -79 c-76 -44 -245 -142 -375 -217 l-238
-138 0 -431 0 -432 -375 -215 -375 -215 -2 -433 -3 -434 -324 -187 c-179 -103
-327 -193 -329 -200 -3 -8 0 -12 5 -10 6 2 159 90 341 194 l331 190 3 434 3
434 373 215 372 215 0 431 0 431 373 215 372 215 3 328 c1 216 -1 327 -8 327
-7 0 -10 -110 -10 -319z"/>
<path d="M2280 3813 l-1 -358 -374 -215 -375 -215 -2 -433 -3 -433 -370 -214
-370 -213 -3 -433 -3 -434 -354 -204 c-195 -112 -364 -210 -375 -218 -19 -13
-20 -25 -20 -229 0 -186 2 -214 15 -214 14 0 16 28 15 212 l-2 213 371 214
371 214 0 431 0 432 375 215 374 214 3 434 3 435 373 215 372 214 0 364 c0
235 -4 363 -10 363 -6 0 -10 -126 -10 -357z"/>
<path d="M2408 3778 l-3 -393 -372 -215 -373 -215 0 -431 0 -432 -372 -214
-373 -215 -3 -432 -2 -431 -33 -20 c-17 -11 -186 -109 -375 -217 l-342 -198 0
-182 c0 -113 4 -183 10 -183 6 0 11 70 12 177 l3 177 372 215 373 215 0 431 0
432 373 214 372 215 5 434 5 435 373 215 372 215 0 397 c0 256 -4 398 -10 398
-6 0 -11 -142 -12 -392z"/>
<path d="M2530 3742 l0 -428 -372 -215 -373 -215 -5 -434 -5 -435 -372 -214
-373 -215 0 -432 0 -431 -372 -215 -373 -215 -3 -146 c-2 -141 -2 -147 17
-147 11 0 179 92 373 204 l353 203 3 -56 c2 -39 -1 -58 -11 -66 -8 -5 -120
-71 -250 -145 -131 -76 -227 -136 -218 -138 10 -2 120 56 244 128 124 71 229
130 232 130 3 0 5 -26 5 -57 l-1 -58 -124 -70 c-72 -41 -116 -71 -106 -73 10
-2 64 24 122 57 l104 60 3 -59 c2 -33 7 -60 12 -60 6 0 10 137 10 354 l0 354
373 215 372 215 2 428 c3 401 4 430 21 444 10 8 179 107 375 220 l357 205 2
433 3 433 370 214 370 214 3 220 c2 199 1 221 -14 221 -9 0 -176 -92 -371
-205 -196 -113 -357 -205 -359 -205 -2 0 -4 26 -4 58 l0 57 252 145 c138 80
244 146 235 148 -9 2 -118 -56 -242 -127 -125 -72 -231 -131 -236 -131 -5 0
-9 24 -9 54 l0 54 127 74 c72 41 120 74 111 76 -9 2 -64 -24 -122 -57 -58 -34
-108 -61 -111 -61 -4 0 -5 27 -3 60 2 43 -1 60 -9 60 -10 0 -13 -92 -13 -428z
m750 349 l0 -58 -358 -207 c-197 -113 -362 -206 -366 -206 -4 0 -6 26 -4 57
l3 57 360 208 c198 114 361 208 363 208 1 0 2 -26 2 -59z m-2 -148 l-3 -57
-305 -176 c-168 -97 -331 -190 -362 -209 l-58 -32 0 59 0 59 358 206 c196 114
361 207 365 207 4 0 7 -26 5 -57z m2 -140 l0 -58 -356 -205 c-195 -113 -359
-206 -364 -208 -6 -2 -10 22 -10 55 l1 58 357 207 c196 113 360 207 365 207 4
1 7 -25 7 -56z m-752 -580 l-3 -56 -350 -203 c-192 -112 -356 -203 -362 -203
-9 -1 -13 16 -13 52 l0 54 358 206 c196 114 361 207 365 207 4 0 7 -25 5 -57z
m2 -140 l0 -58 -73 -42 c-39 -23 -202 -116 -360 -207 -158 -91 -290 -166 -292
-166 -3 0 -5 25 -5 55 0 51 2 56 33 76 56 36 682 397 690 398 4 1 7 -25 7 -56z
m-7 -203 c-12 -11 -685 -398 -706 -406 -16 -6 -18 -1 -15 51 l3 57 360 208
360 208 3 -55 c2 -31 -1 -59 -5 -63z m7 -85 c0 -55 -1 -56 -42 -81 -85 -50
-682 -394 -685 -394 -2 0 -3 26 -3 58 l0 58 358 206 c196 114 360 207 365 208
4 0 7 -25 7 -55z m0 -143 l0 -57 -197 -114 c-109 -63 -267 -154 -351 -203 -84
-49 -160 -92 -168 -95 -13 -5 -15 4 -12 53 l3 58 355 207 c195 114 358 207
363 208 4 1 7 -25 7 -57z m-2 -148 l-3 -56 -353 -204 c-194 -112 -358 -204
-363 -204 -5 0 -9 24 -9 54 l0 54 357 206 c197 113 362 206 366 206 4 0 7 -25
5 -56z m-748 -572 l0 -58 -359 -207 c-198 -114 -362 -207 -366 -207 -3 0 -5
26 -3 57 l3 57 360 208 c198 114 361 208 363 208 1 0 2 -26 2 -58z m-7 -203
c-15 -14 -704 -409 -714 -409 -6 0 -9 23 -7 55 l3 56 360 207 360 208 3 -54
c2 -30 -1 -58 -5 -63z m7 -86 l0 -58 -357 -205 c-195 -113 -360 -206 -364
-208 -5 -2 -9 21 -9 52 0 49 3 58 27 73 45 30 687 401 696 402 4 1 7 -25 7
-56z m0 -142 l0 -59 -348 -200 c-191 -111 -356 -204 -366 -208 -15 -6 -17 0
-14 51 l3 58 360 208 c198 115 361 209 363 209 1 0 2 -26 2 -59z m-2 -148 l-3
-57 -350 -203 c-192 -111 -356 -203 -362 -203 -9 0 -13 17 -13 53 l0 53 358
207 c196 113 361 207 365 207 4 0 7 -26 5 -57z m2 -141 l0 -57 -359 -208
c-198 -114 -363 -207 -366 -207 -3 0 -5 26 -3 57 l3 58 355 206 c195 114 358
207 363 208 4 1 7 -25 7 -57z m-752 -579 l-3 -57 -350 -203 c-192 -111 -356
-202 -362 -203 -9 0 -13 17 -13 53 l0 53 358 207 c196 113 361 207 365 207 4
0 7 -26 5 -57z m2 -140 l0 -58 -360 -207 c-197 -115 -361 -208 -364 -208 -4 0
-6 25 -6 55 0 54 1 57 37 78 139 83 679 395 686 396 4 1 7 -25 7 -56z"/>
<path d="M3410 3925 l0 -245 -44 -28 c-24 -15 -192 -112 -374 -217 l-331 -190
-3 -434 -3 -433 -370 -213 -370 -214 -3 -433 -2 -433 -375 -215 -374 -215 -1
-327 c0 -209 4 -328 10 -328 6 0 11 118 12 321 l3 321 373 215 372 215 0 432
0 432 375 214 374 215 3 434 3 433 373 215 372 216 0 253 c0 163 -4 254 -10
254 -6 0 -10 -88 -10 -245z"/>
<path d="M3528 3884 l-3 -285 -370 -214 -370 -214 -3 -433 -2 -433 -375 -215
-375 -215 -2 -434 -3 -433 -370 -213 -370 -214 -3 -290 c-1 -192 1 -291 8
-291 6 0 10 97 10 279 l0 280 28 19 c24 17 417 245 634 368 l87 49 3 434 3
434 373 215 372 214 0 432 0 431 373 215 372 215 3 293 c1 190 -1 292 -8 292
-6 0 -11 -104 -12 -286z"/>
<path d="M3650 3848 l-1 -323 -367 -211 -367 -211 -3 -432 -2 -431 -33 -20
c-17 -11 -186 -109 -374 -218 l-343 -197 0 -431 0 -432 -372 -215 -373 -215
-3 -256 c-1 -169 1 -256 8 -256 6 0 10 87 10 248 l0 248 373 215 372 215 5
434 5 434 373 215 372 214 0 432 0 432 373 214 372 215 3 327 c2 286 0 327
-13 327 -13 0 -15 -41 -15 -322z"/>
<path d="M3778 3813 l-3 -358 -372 -215 -373 -215 0 -431 0 -432 -317 -182
c-175 -101 -344 -198 -375 -217 l-58 -34 0 -432 -1 -432 -374 -215 -375 -215
0 -217 c0 -136 4 -218 10 -218 6 0 11 82 12 212 l3 212 100 58 c55 32 223 128
373 214 l272 157 0 432 0 432 263 151 c144 83 312 179 372 214 l110 64 5 434
5 434 373 215 372 215 0 363 c0 232 -4 363 -10 363 -6 0 -11 -131 -12 -357z"/>
<path d="M3900 3777 l0 -394 -371 -214 -370 -214 1 -431 0 -431 -372 -214
-373 -215 -5 -434 -5 -434 -372 -215 -373 -215 0 -183 c0 -115 4 -183 10 -183
6 0 10 66 10 178 l1 177 374 215 375 215 0 431 0 432 373 214 372 215 3 434 3
434 367 211 367 211 3 401 c1 266 -1 402 -8 402 -7 0 -10 -135 -10 -393z"/>
<path d="M4030 3742 l0 -427 -372 -215 -373 -215 -5 -434 -5 -435 -372 -214
-373 -215 0 -431 0 -432 -372 -215 -373 -215 -3 -147 c-2 -139 -2 -147 17
-147 14 0 432 235 724 407 4 2 7 -23 7 -55 l0 -60 -250 -144 c-138 -79 -241
-144 -232 -146 10 -2 116 54 235 123 120 69 225 129 233 132 13 5 15 -4 12
-53 l-3 -58 -122 -71 c-73 -42 -115 -71 -104 -73 10 -2 64 24 120 58 57 33
105 60 107 60 2 0 4 -27 4 -60 0 -33 4 -60 10 -60 6 0 11 130 12 356 l3 355
373 216 372 215 0 432 0 431 343 197 c188 109 357 207 374 218 l33 20 2 432 3
432 373 215 372 214 0 219 c0 205 -1 218 -18 218 -11 0 -153 -78 -318 -173
-164 -95 -325 -188 -356 -206 l-58 -32 0 59 0 59 198 114 c287 165 310 179
287 179 -11 0 -125 -60 -253 -134 l-233 -135 3 62 3 61 123 71 c71 40 117 71
107 73 -9 2 -64 -24 -122 -57 -58 -34 -107 -61 -109 -61 -2 0 -4 27 -4 60 0
33 -4 60 -10 60 -7 0 -10 -149 -10 -428z m750 354 c0 -48 -3 -57 -27 -74 -35
-24 -691 -402 -698 -402 -3 0 -5 26 -5 58 l1 57 357 207 c196 113 360 207 365
207 4 1 7 -23 7 -53z m0 -150 l0 -54 -82 -48 c-46 -26 -210 -121 -366 -211
l-283 -163 3 61 3 61 350 203 c193 112 356 204 363 204 8 1 12 -16 12 -53z
m-2 -143 l-3 -57 -140 -82 c-319 -185 -570 -329 -577 -332 -4 -2 -8 23 -8 55
l0 58 358 207 c196 114 361 207 365 208 4 0 7 -26 5 -57z m-750 -579 l-3 -56
-320 -185 c-176 -101 -339 -196 -362 -209 l-43 -25 0 60 0 59 357 206 c197
113 361 206 366 206 4 0 7 -25 5 -56z m2 -141 l0 -58 -357 -205 c-196 -113
-360 -206 -365 -208 -4 -2 -8 23 -8 55 l0 58 358 207 c196 114 360 207 365
207 4 1 7 -25 7 -56z m0 -141 l0 -59 -348 -201 c-192 -111 -356 -204 -366
-208 -15 -6 -17 0 -14 52 l3 58 360 208 c198 114 361 208 363 208 1 0 2 -26 2
-58z m-2 -149 l-3 -57 -305 -176 c-168 -97 -331 -190 -362 -209 l-58 -32 0 59
0 59 358 206 c196 114 361 207 365 207 4 0 7 -26 5 -57z m2 -140 l0 -58 -355
-205 c-196 -113 -360 -206 -365 -208 -6 -2 -10 22 -10 55 l1 58 357 207 c196
113 360 207 365 207 4 1 7 -25 7 -56z m-2 -149 l-3 -56 -355 -204 c-194 -112
-358 -204 -363 -204 -4 0 -7 25 -5 56 l3 56 350 203 c193 112 356 204 363 204
10 1 12 -14 10 -55z m-748 -572 l0 -57 -360 -208 c-197 -114 -362 -207 -365
-207 -3 0 -5 26 -3 57 l3 58 355 206 c195 114 358 207 363 208 4 1 7 -25 7
-57z m-7 -202 c-9 -9 -630 -368 -681 -394 -17 -9 -34 -16 -37 -16 -3 0 -5 25
-3 56 l3 56 360 208 360 208 3 -56 c2 -30 -1 -58 -5 -62z m7 -87 l-1 -58 -356
-205 c-197 -113 -361 -206 -365 -208 -4 -2 -8 23 -8 55 l0 58 358 207 c196
114 360 207 365 208 4 0 7 -26 7 -57z m0 -141 l0 -59 -358 -206 c-198 -114
-362 -207 -366 -207 -4 0 -6 26 -4 57 l3 57 360 208 c198 114 361 208 363 208
1 0 2 -26 2 -58z m-2 -148 l-3 -57 -310 -179 c-170 -99 -334 -193 -362 -209
l-53 -30 0 59 0 60 123 70 c67 39 228 131 357 206 129 75 239 136 243 136 4 0
7 -25 5 -56z m2 -141 l0 -58 -356 -205 c-196 -113 -360 -206 -365 -208 -5 -2
-9 23 -9 55 l1 58 357 207 c196 113 360 207 365 207 4 1 7 -25 7 -56z m-750
-578 l0 -54 -67 -40 c-276 -161 -645 -371 -653 -371 -5 0 -10 24 -10 54 l0 53
358 207 c196 113 360 206 365 206 4 0 7 -25 7 -55z m0 -142 l0 -58 -356 -205
c-196 -113 -360 -207 -365 -208 -5 -2 -9 23 -9 55 l0 58 358 207 c196 113 360
207 365 207 4 1 7 -25 7 -56z"/>
<path d="M4900 3921 l0 -248 -372 -215 -373 -215 -3 -434 -3 -434 -321 -185
c-177 -102 -343 -197 -370 -213 l-48 -27 0 -430 c0 -419 0 -429 -20 -443 -11
-8 -180 -106 -375 -218 l-355 -204 0 -327 c0 -209 4 -328 10 -328 6 0 11 119
12 322 l3 321 373 215 372 215 0 431 0 432 370 213 370 214 0 432 0 431 373
215 372 215 3 257 c1 169 -1 257 -8 257 -6 0 -10 -87 -10 -249z"/>
<path d="M5030 3887 l0 -283 -372 -215 -373 -215 -3 -432 -2 -432 -38 -23
c-20 -13 -189 -111 -374 -218 l-338 -194 0 -432 0 -431 -372 -215 -373 -215
-3 -291 c-1 -192 1 -291 8 -291 6 0 10 98 10 283 l0 283 373 215 372 215 5
434 5 434 373 215 372 216 0 431 0 431 373 215 372 215 3 292 c1 192 -1 291
-8 291 -6 0 -10 -98 -10 -283z"/>
<path d="M5148 3848 l-3 -322 -372 -215 -373 -215 0 -431 0 -432 -372 -215
-373 -215 -3 -434 -3 -434 -367 -211 -367 -211 -3 -256 c-1 -169 1 -257 8
-257 6 0 10 87 10 249 l0 248 373 215 372 214 3 435 3 434 367 211 367 212 3
431 2 431 33 20 c17 11 186 109 374 218 l343 197 0 328 c0 208 -4 327 -10 327
-6 0 -11 -119 -12 -322z"/>
<path d="M5278 3814 l-3 -357 -372 -215 -373 -215 0 -431 0 -432 -307 -177
c-170 -97 -337 -194 -373 -215 l-65 -38 -5 -434 -5 -434 -372 -215 -373 -215
0 -218 c0 -136 4 -218 10 -218 6 0 11 82 12 213 l3 212 373 215 372 215 0 431
0 432 373 215 372 216 3 433 2 433 355 204 c195 112 364 210 375 218 19 14 20
25 20 374 0 229 -4 359 -10 359 -6 0 -11 -130 -12 -356z"/>
<path d="M5400 3778 l0 -393 -343 -197 c-188 -109 -357 -207 -374 -218 l-33
-20 -2 -431 -3 -432 -372 -215 -373 -215 0 -432 0 -431 -372 -215 c-204 -118
-371 -217 -370 -221 1 -5 2 -87 2 -183 0 -110 4 -175 10 -175 6 0 10 66 10
178 l0 177 355 204 c195 112 362 209 370 215 14 10 16 63 15 439 l0 427 47 29
c27 17 195 115 375 218 l327 188 3 434 3 433 373 215 372 215 0 399 c0 259 -4
399 -10 399 -6 0 -10 -138 -10 -392z"/>
<path d="M5521 3743 c-1 -349 -4 -430 -15 -438 -7 -5 -174 -102 -370 -215
l-356 -205 -2 -433 -3 -433 -370 -214 -370 -213 -3 -434 -2 -433 -375 -215
-374 -215 -1 -147 c0 -137 1 -148 18 -148 10 0 153 78 318 173 164 95 325 188
357 206 l57 32 0 -59 0 -59 -251 -144 c-138 -79 -243 -146 -234 -147 9 -2 119
55 244 127 125 72 231 131 235 131 4 0 6 -25 4 -56 l-3 -57 -123 -71 c-69 -40
-116 -72 -107 -74 9 -2 64 24 122 57 58 34 107 61 109 61 2 0 4 -27 4 -60 0
-33 4 -60 10 -60 6 0 11 131 12 357 l3 357 373 215 372 215 0 431 0 432 373
214 372 215 5 434 5 435 350 201 c192 111 351 208 354 215 7 21 28 32 -666
-368 l-43 -25 0 59 0 60 355 204 c195 112 355 210 355 217 0 10 -9 8 -32 -6
-18 -11 -141 -82 -273 -157 -132 -76 -277 -160 -323 -187 l-83 -48 3 61 3 62
345 199 c190 110 349 203 354 208 39 39 -47 -6 -348 -180 -191 -110 -349 -200
-352 -200 -2 0 -4 26 -4 58 l0 57 355 204 c195 113 355 211 355 218 0 11 -4
11 -22 -1 -13 -8 -169 -98 -348 -201 -179 -103 -328 -189 -332 -192 -5 -2 -8
23 -8 55 l0 60 250 144 c143 82 242 144 231 146 -10 2 -115 -54 -234 -123
-119 -69 -224 -128 -233 -132 -13 -5 -15 3 -12 53 l3 58 122 71 c70 40 115 71
105 73 -10 2 -65 -24 -122 -58 l-105 -60 -3 60 c-2 43 -7 60 -17 60 -12 0 -14
-69 -14 -427z m8 -517 l2 -53 -218 -125 c-120 -69 -285 -164 -366 -212 l-148
-86 3 62 3 61 350 203 c193 111 355 203 361 203 6 1 11 -22 13 -53z m-1 -143
l-3 -57 -305 -176 c-168 -97 -331 -190 -362 -209 l-58 -32 0 59 0 59 358 206
c196 114 361 207 365 207 4 0 7 -26 5 -57z m2 -142 c0 -33 -5 -52 -17 -63 -20
-16 -699 -408 -708 -408 -3 0 -5 26 -5 58 l1 57 357 206 c196 113 360 204 365
202 4 -2 7 -26 7 -52z m-2 -147 l-3 -56 -350 -202 c-192 -111 -356 -205 -363
-210 -10 -6 -12 5 -10 54 l3 62 350 203 c193 112 356 204 363 204 10 1 12 -14
10 -55z m2 -151 c0 -33 -5 -46 -22 -57 -33 -21 -700 -406 -705 -406 -1 0 -3
26 -3 58 l0 57 358 206 c237 137 359 203 364 195 4 -6 8 -30 8 -53z m0 -136
l0 -53 -359 -207 c-197 -114 -361 -207 -365 -207 -4 0 -6 26 -4 57 l3 57 350
203 c193 111 356 202 363 203 8 0 12 -17 12 -53z m-750 -572 c0 -46 -4 -57
-22 -69 -33 -21 -700 -406 -705 -406 -1 0 -3 26 -3 58 l0 57 358 207 c196 114
360 207 365 207 4 1 7 -24 7 -54z m0 -148 l0 -54 -358 -206 c-198 -114 -362
-207 -366 -207 -4 0 -6 26 -4 57 l3 57 350 203 c193 111 356 202 363 203 8 0
12 -17 12 -53z m-2 -144 l-3 -56 -310 -179 c-170 -99 -334 -193 -362 -209
l-53 -30 0 59 0 59 358 207 c196 113 361 206 365 206 4 0 7 -25 5 -57z m2
-138 c0 -52 -2 -56 -37 -79 -51 -33 -682 -396 -688 -396 -3 0 -5 26 -5 58 l1
57 357 207 c196 113 360 207 365 207 4 1 7 -24 7 -54z m0 -149 l0 -54 -147
-85 c-82 -47 -246 -141 -366 -211 l-218 -126 3 61 3 62 350 202 c193 112 356
204 363 204 8 1 12 -16 12 -53z m-2 -143 l-3 -58 -360 -207 -360 -208 -3 56
c-2 31 -2 58 0 59 9 9 714 414 721 415 4 0 7 -26 5 -57z m-750 -579 l-3 -56
-320 -184 c-176 -102 -339 -196 -362 -210 l-43 -25 0 60 0 59 353 205 c193
113 358 205 365 206 10 1 12 -14 10 -55z m2 -141 l-1 -58 -356 -205 c-196
-113 -360 -207 -365 -208 -4 -2 -8 23 -8 55 l0 58 358 207 c196 114 360 207
365 207 4 1 7 -25 7 -56z"/>
<path d="M5955 3417 l-300 -173 -5 -434 -5 -434 -372 -215 -373 -215 0 -431 0
-432 -372 -215 -373 -215 -3 -327 c-1 -215 1 -326 8 -326 6 0 10 110 10 318
l0 319 373 215 372 215 5 434 5 434 373 215 372 215 0 431 0 431 293 168 c340
196 300 171 296 184 -2 6 -139 -67 -304 -162z"/>
<path d="M6018 3312 l-237 -137 -3 -434 -3 -435 -372 -214 -373 -215 0 -431 0
-432 -372 -215 -373 -215 -3 -292 c-1 -193 1 -292 8 -292 6 0 10 99 10 284 l0
284 373 215 372 215 3 433 3 434 374 215 375 215 0 432 0 431 230 133 c127 73
230 139 230 146 0 7 -1 13 -2 12 -2 0 -110 -62 -240 -137z"/>
<path d="M6073 3198 l-173 -101 0 -431 0 -431 -372 -215 -373 -215 -5 -434 -5
-434 -372 -215 -373 -215 0 -254 c0 -162 4 -253 10 -253 6 0 10 88 10 244 0
234 1 245 20 259 11 8 180 106 375 218 l355 204 2 433 3 434 370 213 370 213
3 434 2 433 167 96 c145 84 197 121 166 118 -4 0 -86 -46 -180 -101z"/>
<path d="M6142 3092 l-113 -67 0 -428 1 -427 -43 -28 c-24 -15 -193 -112 -375
-217 l-331 -190 -3 -434 -3 -433 -372 -215 -373 -215 0 -219 c0 -139 4 -219
10 -219 6 0 10 78 10 213 l0 212 343 197 c188 109 357 207 374 218 l33 20 2
431 3 432 373 214 372 215 0 432 0 432 105 60 c58 32 105 65 105 72 0 6 -1 12
-2 12 -2 0 -54 -31 -116 -68z"/>
<path d="M6198 2982 l-48 -27 -2 -434 -3 -433 -370 -213 -370 -213 -3 -434 -2
-433 -375 -215 -375 -215 0 -182 c0 -113 4 -183 10 -183 6 0 11 70 12 176 l3
176 373 216 372 215 0 431 0 431 375 215 374 215 1 432 0 432 45 27 c25 14 45
30 45 35 0 14 -11 11 -62 -19z"/>
<path d="M5900 1804 c-195 -113 -360 -210 -367 -216 -10 -8 -13 -104 -13 -438
l0 -428 -370 -213 -370 -214 0 -147 c0 -129 2 -148 16 -148 9 0 176 92 371
205 195 113 357 205 359 205 2 0 4 -24 4 -54 0 -66 22 -49 -280 -222 -123 -71
-217 -130 -208 -132 9 -2 119 56 243 127 125 72 231 131 236 131 11 0 12 -90
1 -106 -4 -6 -61 -42 -126 -80 -68 -39 -113 -70 -104 -72 10 -2 63 24 120 57
57 32 107 56 112 51 4 -4 6 -31 5 -59 -3 -36 0 -51 9 -51 9 0 12 78 12 358 l1
357 354 203 c195 112 355 208 355 214 0 15 -3 13 -361 -193 -184 -105 -337
-194 -341 -196 -5 -2 -8 22 -8 55 l0 59 353 203 c193 111 354 204 356 206 1 1
1 7 0 13 -2 5 -163 -82 -357 -194 l-353 -204 3 61 3 61 331 191 c369 213 382
221 373 230 -4 4 -163 -83 -354 -193 -191 -111 -349 -201 -351 -201 -2 0 -4
26 -4 58 l0 57 355 205 c195 112 355 210 355 217 0 10 -139 -67 -610 -340
l-95 -55 -3 55 c-2 31 1 59 5 63 4 4 159 94 343 200 184 106 341 198 349 206
44 41 -28 4 -334 -173 -187 -107 -346 -198 -352 -200 -10 -4 -13 11 -13 53 l1
59 354 203 c195 112 355 208 355 214 0 15 -3 14 -346 -185 -175 -101 -329
-189 -341 -196 -23 -11 -23 -11 -23 46 l0 59 343 197 c409 236 370 212 366
225 -2 6 -164 -82 -359 -194z m-370 -1161 c0 -27 -4 -53 -8 -58 -7 -11 -676
-400 -707 -411 -14 -6 -16 2 -13 52 l3 58 350 202 c193 112 356 203 363 203 8
1 12 -15 12 -46z m-2 -158 l-3 -48 -305 -176 c-168 -97 -331 -192 -362 -210
l-58 -32 0 59 0 59 357 206 c197 114 361 203 366 198 4 -4 7 -30 5 -56z"/>
<path d="M5954 827 l-299 -173 -3 -327 c-1 -216 1 -327 8 -327 7 0 10 110 10
319 l0 319 290 167 c271 156 308 180 298 190 -2 3 -139 -73 -304 -168z"/>
<path d="M6018 721 l-237 -136 -1 -292 c0 -186 4 -293 10 -293 6 0 11 107 12
286 l3 285 215 125 c118 69 221 129 229 133 7 5 12 13 10 18 -2 6 -111 -51
-241 -126z"/>
<path d="M6073 608 l-173 -100 0 -254 c0 -163 4 -254 10 -254 6 0 10 89 10
248 l0 247 167 96 c145 83 197 121 166 118 -4 0 -86 -45 -180 -101z"/>
<path d="M6143 504 l-113 -66 0 -219 c0 -139 4 -219 10 -219 6 0 10 78 10 213
l0 213 105 60 c58 32 105 65 105 72 0 6 -1 12 -2 12 -2 0 -54 -30 -115 -66z"/>
<path d="M6198 392 l-48 -27 0 -182 c0 -113 4 -183 10 -183 6 0 11 70 12 177
l3 178 43 23 c23 13 42 28 42 33 0 14 -11 11 -62 -19z"/>
</g>
</svg>
